# xmcd CD database file
#
# Track frame offsets:
#	150
#	24342
#	51067
#	82481
#	104606
#	128495
#	144593
#	166559
#	191797
#	219144
#	246538
#	272494
#	301740
#
# Disc length: 4219 seconds
#
# Revision: 0
# Processed by: cddbd v1.4PL0 Copyright (c) Steve Scherf et al.
# Submitted via: CDex 1.50Beta7
#
DISCID=af10790d
DTITLE=SIXUN - Lunatic Taxi
DYEAR=1900
DGENRE=Jazz
TTITLE0=What's Up?
TTITLE1=State Street
TTITLE2=Les Tambours De Noel
TTITLE3=Niger
TTITLE4=Les Enfants Du Monde
TTITLE5=Emergency
TTITLE6=Santorin
TTITLE7=Raggalibo
TTITLE8=Cantabile
TTITLE9=L'Amour Bolero
TTITLE10=Fainakiki
TTITLE11=Payanak
TTITLE12=Arnaud Birthday
EXTD=
EXTT0=
EXTT1=
EXTT2=
EXTT3=
EXTT4=
EXTT5=
EXTT6=
EXTT7=
EXTT8=
EXTT9=
EXTT10=
EXTT11=
EXTT12=
PLAYORDER=
